<svg xmlns="http://www.w3.org/2000/svg" width="22" height="22" viewBox="0 0 22 22"><defs><style>.a{fill:#b5b5b5;}</style></defs><path class="a" d="M21.522,10.565h-.591a10.05,10.05,0,0,0-8.5-8.5V1.478A.478.478,0,0,0,11.957,1H10.043a.478.478,0,0,0-.478.478v.591a10.05,10.05,0,0,0-8.5,8.5H.478A.478.478,0,0,0,0,11.043v1.913a.478.478,0,0,0,.478.478h.591a10.05,10.05,0,0,0,8.5,8.5v.591a.478.478,0,0,0,.478.478h1.913a.478.478,0,0,0,.478-.478v-.591a10.05,10.05,0,0,0,8.5-8.5h.591A.478.478,0,0,0,22,12.957V11.043A.478.478,0,0,0,21.522,10.565Zm-11-8.609h.957v.957h-.957ZM.957,11.522h.957v.957H.957ZM11.478,22.043h-.957v-.957h.957Zm.957-1.077v-.358a.478.478,0,0,0-.478-.478H10.043a.478.478,0,0,0-.478.478v.358a9.1,9.1,0,0,1-7.532-7.532h.358a.478.478,0,0,0,.478-.478V11.043a.478.478,0,0,0-.478-.478H2.034A9.1,9.1,0,0,1,9.565,3.034v.358a.478.478,0,0,0,.478.478h1.913a.478.478,0,0,0,.478-.478V3.034a9.1,9.1,0,0,1,7.532,7.532h-.358a.478.478,0,0,0-.478.478v1.913a.478.478,0,0,0,.478.478h.358A9.1,9.1,0,0,1,12.435,20.966Zm8.609-8.488h-.957v-.957h.957Z" transform="translate(0 -1)"/></svg>