<svg xmlns="http://www.w3.org/2000/svg" width="22" height="22" viewBox="0 0 22 22"><defs><style>.a{fill:#a06aff;}</style></defs><g transform="translate(60.423 26.458)"><path class="a" d="M8.252,16.5a8.191,8.191,0,0,0,4.425-1.3l6.287,6.285a1.8,1.8,0,0,0,2.525-.009,1.81,1.81,0,0,0,0-2.524l-6.281-6.279A8.245,8.245,0,1,0,8.252,16.5Zm12.583,3.1a.876.876,0,0,1,0,1.234.911.911,0,0,1-1.231,0l-6.172-6.171a8.315,8.315,0,0,0,1.231-1.231ZM8.252.917A7.333,7.333,0,1,1,.917,8.25,7.343,7.343,0,0,1,8.252.917Z" transform="translate(-60.423 -26.458)"/></g></svg>